<?xml version="1.0" encoding="UTF-8" standalone="no" ?>
<!DOCTYPE svg PUBLIC "-//W3C//DTD SVG 1.1//EN" "http://www.w3.org/Graphics/SVG/1.1/DTD/svg11.dtd">
<svg xmlns="http://www.w3.org/2000/svg" xmlns:xlink="http://www.w3.org/1999/xlink" version="1.1" width="1080" height="1080" viewBox="0 0 1080 1080" xml:space="preserve">
<desc>Created with Fabric.js 5.2.4</desc>
<defs>
</defs>
<rect x="0" y="0" width="100%" height="100%" fill="transparent"></rect>
<g transform="matrix(1 0 0 1 540 540)" id="cef6c5eb-95ae-450d-9eca-057801ffa56f"  >
<rect style="stroke: none; stroke-width: 1; stroke-dasharray: none; stroke-linecap: butt; stroke-dashoffset: 0; stroke-linejoin: miter; stroke-miterlimit: 4; fill: rgb(255,255,255); fill-rule: nonzero; opacity: 1; visibility: hidden;" vector-effect="non-scaling-stroke"  x="-540" y="-540" rx="0" ry="0" width="1080" height="1080" />
</g>
<g transform="matrix(1 0 0 1 540 540)" id="67aad0a2-d6c2-472d-a169-38e0472924e9"  >
</g>
<g transform="matrix(1 0 0 1 540 540)"  >
<g style="" vector-effect="non-scaling-stroke"   >
		<g transform="matrix(33.33 0 0 33.33 0 0)"  >
<path style="stroke: none; stroke-width: 1; stroke-dasharray: none; stroke-linecap: butt; stroke-dashoffset: 0; stroke-linejoin: miter; stroke-miterlimit: 4; fill: rgb(82,82,82); fill-rule: evenodd; opacity: 1;" vector-effect="non-scaling-stroke"  transform=" translate(-12, -12)" d="M 12 8.25 C 9.92894 8.25 8.25 9.92893 8.25 12 C 8.25 14.0711 9.92894 15.75 12 15.75 C 14.0711 15.75 15.75 14.0711 15.75 12 C 15.75 9.92893 14.0711 8.25 12 8.25 Z M 9.75 12 C 9.75 10.7574 10.7574 9.75 12 9.75 C 13.2426 9.75 14.25 10.7574 14.25 12 C 14.25 13.2426 13.2426 14.25 12 14.25 C 10.7574 14.25 9.75 13.2426 9.75 12 Z" stroke-linecap="round" />
</g>
		<g transform="matrix(33.33 0 0 33.33 0 0)"  >
<path style="stroke: none; stroke-width: 1; stroke-dasharray: none; stroke-linecap: butt; stroke-dashoffset: 0; stroke-linejoin: miter; stroke-miterlimit: 4; fill: rgb(82,82,82); fill-rule: evenodd; opacity: 1;" vector-effect="non-scaling-stroke"  transform=" translate(-12, -12)" d="M 11.9747 1.25 C 11.5303 1.24999 11.1592 1.24999 10.8546 1.27077 C 10.5375 1.29241 10.238 1.33905 9.94761 1.45933 C 9.27379 1.73844 8.73843 2.27379 8.45932 2.94762 C 8.31402 3.29842 8.27467 3.66812 8.25964 4.06996 C 8.24756 4.39299 8.08454 4.66251 7.84395 4.80141 C 7.60337 4.94031 7.28845 4.94673 7.00266 4.79568 C 6.64714 4.60777 6.30729 4.45699 5.93083 4.40743 C 5.20773 4.31223 4.47642 4.50819 3.89779 4.95219 C 3.64843 5.14353 3.45827 5.3796 3.28099 5.6434 C 3.11068 5.89681 2.92517 6.21815 2.70294 6.60307 L 2.67769 6.64681 C 2.45545 7.03172 2.26993 7.35304 2.13562 7.62723 C 1.99581 7.91267 1.88644 8.19539 1.84541 8.50701 C 1.75021 9.23012 1.94617 9.96142 2.39016 10.5401 C 2.62128 10.8412 2.92173 11.0602 3.26217 11.2741 C 3.53595 11.4461 3.68788 11.7221 3.68786 12 C 3.68785 12.2778 3.53592 12.5538 3.26217 12.7258 C 2.92169 12.9397 2.62121 13.1587 2.39007 13.4599 C 1.94607 14.0385 1.75012 14.7698 1.84531 15.4929 C 1.88634 15.8045 1.99571 16.0873 2.13552 16.3727 C 2.26983 16.6469 2.45535 16.9682 2.67758 17.3531 L 2.70284 17.3969 C 2.92507 17.7818 3.11058 18.1031 3.28089 18.3565 C 3.45817 18.6203 3.64833 18.8564 3.89769 19.0477 C 4.47632 19.4917 5.20763 19.6877 5.93073 19.5925 C 6.30717 19.5429 6.647 19.3922 7.0025 19.2043 C 7.28833 19.0532 7.60329 19.0596 7.8439 19.1986 C 8.08452 19.3375 8.24756 19.607 8.25964 19.9301 C 8.27467 20.3319 8.31403 20.7016 8.45932 21.0524 C 8.73843 21.7262 9.27379 22.2616 9.94761 22.5407 C 10.238 22.661 10.5375 22.7076 10.8546 22.7292 C 11.1592 22.75 11.5303 22.75 11.9747 22.75 L 12.0252 22.75 C 12.4697 22.75 12.8407 22.75 13.1454 22.7292 C 13.4625 22.7076 13.762 22.661 14.0524 22.5407 C 14.7262 22.2616 15.2616 21.7262 15.5407 21.0524 C 15.686 20.7016 15.7253 20.3319 15.7403 19.93 C 15.7524 19.607 15.9154 19.3375 16.156 19.1985 C 16.3966 19.0596 16.7116 19.0532 16.9974 19.2042 C 17.3529 19.3921 17.6927 19.5429 18.0692 19.5924 C 18.7923 19.6876 19.5236 19.4917 20.1022 19.0477 C 20.3516 18.8563 20.5417 18.6203 20.719 18.3565 C 20.8893 18.1031 21.0748 17.7818 21.297 17.3969 L 21.3223 17.3531 C 21.5445 16.9682 21.7301 16.6468 21.8644 16.3726 C 22.0042 16.0872 22.1135 15.8045 22.1546 15.4929 C 22.2498 14.7697 22.0538 14.0384 21.6098 13.4598 C 21.3787 13.1586 21.0782 12.9397 20.7378 12.7258 C 20.464 12.5538 20.3121 12.2778 20.3121 11.9999 C 20.3121 11.7221 20.464 11.4462 20.7377 11.2742 C 21.0783 11.0603 21.3788 10.8414 21.6099 10.5401 C 22.0539 9.96149 22.2499 9.23019 22.1547 8.50708 C 22.1136 8.19546 22.0043 7.91274 21.8645 7.6273 C 21.7302 7.35313 21.5447 7.03183 21.3224 6.64695 L 21.2972 6.60318 C 21.0749 6.21825 20.8894 5.89688 20.7191 5.64347 C 20.5418 5.37967 20.3517 5.1436 20.1023 4.95225 C 19.5237 4.50826 18.7924 4.3123 18.0692 4.4075 C 17.6928 4.45706 17.353 4.60782 16.9975 4.79572 C 16.7117 4.94679 16.3967 4.94036 16.1561 4.80144 C 15.9155 4.66253 15.7524 4.39297 15.7403 4.06991 C 15.7253 3.66808 15.686 3.2984 15.5407 2.94762 C 15.2616 2.27379 14.7262 1.73844 14.0524 1.45933 C 13.762 1.33905 13.4625 1.29241 13.1454 1.27077 C 12.8407 1.24999 12.4697 1.24999 12.0252 1.25 L 11.9747 1.25 Z M 10.5216 2.84515 C 10.5988 2.81319 10.716 2.78372 10.9567 2.76729 C 11.2042 2.75041 11.5238 2.75 12 2.75 C 12.4762 2.75 12.7958 2.75041 13.0432 2.76729 C 13.284 2.78372 13.4012 2.81319 13.4783 2.84515 C 13.7846 2.97202 14.028 3.21536 14.1548 3.52165 C 14.1949 3.61826 14.228 3.76887 14.2414 4.12597 C 14.271 4.91835 14.68 5.68129 15.4061 6.10048 C 16.1321 6.51968 16.9974 6.4924 17.6984 6.12188 C 18.0143 5.9549 18.1614 5.90832 18.265 5.89467 C 18.5937 5.8514 18.9261 5.94047 19.1891 6.14228 C 19.2554 6.19312 19.3395 6.27989 19.4741 6.48016 C 19.6125 6.68603 19.7726 6.9626 20.0107 7.375 C 20.2488 7.78741 20.4083 8.06438 20.5174 8.28713 C 20.6235 8.50382 20.6566 8.62007 20.6675 8.70287 C 20.7108 9.03155 20.6217 9.36397 20.4199 9.62698 C 20.3562 9.70995 20.2424 9.81399 19.9397 10.0041 C 19.2684 10.426 18.8122 11.1616 18.8121 11.9999 C 18.8121 12.8383 19.2683 13.574 19.9397 13.9959 C 20.2423 14.186 20.3561 14.29 20.4198 14.373 C 20.6216 14.636 20.7107 14.9684 20.6674 15.2971 C 20.6565 15.3799 20.6234 15.4961 20.5173 15.7128 C 20.4082 15.9355 20.2487 16.2125 20.0106 16.6249 C 19.7725 17.0373 19.6124 17.3139 19.474 17.5198 C 19.3394 17.72 19.2553 17.8068 19.189 17.8576 C 18.926 18.0595 18.5936 18.1485 18.2649 18.1053 C 18.1613 18.0916 18.0142 18.045 17.6983 17.8781 C 16.9973 17.5075 16.132 17.4803 15.4059 17.8995 C 14.68 18.3187 14.271 19.0816 14.2414 19.874 C 14.228 20.2311 14.1949 20.3817 14.1548 20.4784 C 14.028 20.7846 13.7846 21.028 13.4783 21.1549 C 13.4012 21.1868 13.284 21.2163 13.0432 21.2327 C 12.7958 21.2496 12.4762 21.25 12 21.25 C 11.5238 21.25 11.2042 21.2496 10.9567 21.2327 C 10.716 21.2163 10.5988 21.1868 10.5216 21.1549 C 10.2154 21.028 9.97201 20.7846 9.84514 20.4784 C 9.80512 20.3817 9.77195 20.2311 9.75859 19.874 C 9.72896 19.0817 9.31997 18.3187 8.5939 17.8995 C 7.86784 17.4803 7.00262 17.5076 6.30158 17.8781 C 5.98565 18.0451 5.83863 18.0917 5.73495 18.1053 C 5.40626 18.1486 5.07385 18.0595 4.81084 17.8577 C 4.74458 17.8069 4.66045 17.7201 4.52586 17.5198 C 4.38751 17.314 4.22736 17.0374 3.98926 16.625 C 3.75115 16.2126 3.59171 15.9356 3.4826 15.7129 C 3.37646 15.4962 3.34338 15.3799 3.33248 15.2971 C 3.28921 14.9684 3.37828 14.636 3.5801 14.373 C 3.64376 14.2901 3.75761 14.186 4.0602 13.9959 C 4.73158 13.5741 5.18782 12.8384 5.18786 12.0001 C 5.18791 11.1616 4.73165 10.4259 4.06021 10.004 C 3.75769 9.81389 3.64385 9.70987 3.58019 9.62691 C 3.37838 9.3639 3.28931 9.03149 3.33258 8.7028 C 3.34348 8.62001 3.37656 8.50375 3.4827 8.28707 C 3.59181 8.06431 3.75125 7.78734 3.98935 7.37493 C 4.22746 6.96253 4.3876 6.68596 4.52596 6.48009 C 4.66055 6.27983 4.74468 6.19305 4.81093 6.14222 C 5.07395 5.9404 5.40636 5.85133 5.73504 5.8946 C 5.83873 5.90825 5.98576 5.95483 6.30173 6.12184 C 7.00273 6.49235 7.86791 6.51962 8.59394 6.10045 C 9.31998 5.68128 9.72896 4.91837 9.75859 4.12602 C 9.77195 3.76889 9.80512 3.61827 9.84514 3.52165 C 9.97201 3.21536 10.2154 2.97202 10.5216 2.84515 Z" stroke-linecap="round" />
</g>
</g>
</g>
</svg>