<svg width="24" height="24" viewBox="0 0 24 24" fill="none" xmlns="http://www.w3.org/2000/svg">
<path d="M13.0615 2.00586C13.1497 2.01151 13.2375 2.02844 13.3213 2.05664H13.3633C13.3817 2.06952 13.3989 2.08399 13.415 2.09961C13.5239 2.14801 13.6232 2.21604 13.708 2.2998L19.708 8.2998C19.7918 8.38456 19.8598 8.48388 19.9082 8.59277C19.9172 8.61477 19.9237 8.63618 19.9307 8.65918L19.9414 8.6875C19.9692 8.77072 19.9856 8.85769 19.9902 8.94531C19.9911 8.95506 19.9934 8.96456 19.9971 8.97363V8.98047C19.9986 8.98688 19.9997 8.99341 20 9V20C20 20.5304 19.7891 21.039 19.4141 21.4141C19.039 21.7891 18.5304 22 18 22H6C4.89543 22 4 21.1046 4 20V4C4.00001 2.89544 4.89544 2 6 2H13.0332C13.0424 2.00288 13.0519 2.00482 13.0615 2.00586ZM15.8389 14C15.5692 14.0001 15.3261 14.0626 15.1104 14.1885C14.8944 14.3099 14.7106 14.4841 14.5576 14.709C14.4047 14.9294 14.287 15.1922 14.2061 15.498C14.1251 15.8038 14.085 16.1388 14.085 16.5029C14.085 16.8763 14.1251 17.2166 14.2061 17.5225C14.2915 17.8283 14.4115 18.0911 14.5645 18.3115C14.7219 18.5319 14.9128 18.7028 15.1377 18.8242C15.3626 18.9412 15.617 19 15.9004 19C16.1791 19 16.4174 18.9635 16.6152 18.8916C16.8176 18.8196 16.9908 18.7253 17.1348 18.6084V16.1865H15.8193V16.8877H16.3994V18.123C16.3455 18.1635 16.2734 18.1967 16.1836 18.2236C16.0982 18.2461 16.0014 18.2578 15.8936 18.2578C15.7228 18.2578 15.5741 18.2129 15.4482 18.123C15.3269 18.0331 15.2255 17.9092 15.1445 17.752C15.0636 17.59 15.0024 17.4028 14.9619 17.1914C14.9215 16.9756 14.9014 16.7458 14.9014 16.5029C14.9014 16.2692 14.9215 16.0463 14.9619 15.835C15.0024 15.6237 15.0636 15.4396 15.1445 15.2822C15.2255 15.1203 15.3268 14.9919 15.4482 14.8975C15.5742 14.8031 15.7204 14.7559 15.8867 14.7559C16.1925 14.7559 16.4353 14.8866 16.6152 15.1475L17.0811 14.5801C16.9507 14.3958 16.7819 14.2542 16.5752 14.1553C16.3683 14.0518 16.1223 14 15.8389 14ZM7 14.1211V18.8984H7.7959V16.9824H8.36328C8.52959 16.9824 8.69131 16.9529 8.84863 16.8945C9.00608 16.8361 9.14612 16.7465 9.26758 16.625C9.38899 16.5036 9.48566 16.3527 9.55762 16.1729C9.63409 15.9884 9.67188 15.7742 9.67188 15.5312C9.67183 15.2618 9.62923 15.0372 9.54395 14.8574C9.46297 14.6775 9.35702 14.5328 9.22656 14.4248C9.10066 14.3125 8.95676 14.2334 8.79492 14.1885C8.633 14.1435 8.47519 14.1211 8.32227 14.1211H7ZM10.3408 14.1211V18.8984H11.0693L11.0557 15.5254H11.0762L12.4326 18.8984H13.3232V14.1211H12.6211L12.6279 17.5156H12.6084L11.2656 14.1211H10.3408ZM8.25488 14.8027C8.44382 14.8027 8.59925 14.8616 8.7207 14.9785C8.84205 15.0954 8.90326 15.2819 8.90332 15.5381C8.90332 15.7945 8.84216 15.991 8.7207 16.126C8.59928 16.2563 8.44371 16.3213 8.25488 16.3213H7.7959V14.8027H8.25488ZM13 9H18L13 4V9Z" fill="white"/>
</svg>
