<svg width="151" height="151" viewBox="0 0 151 151" fill="none" xmlns="http://www.w3.org/2000/svg">
<ellipse opacity="0.1" cx="75.0164" cy="145.532" rx="75.0163" ry="4.50098" fill="#FFFEFE"/>
<path fill-rule="evenodd" clip-rule="evenodd" d="M107.463 24.5484C108.755 22.789 111.229 22.4106 112.989 23.703C114.748 24.9955 115.127 27.4694 113.834 29.2287L109.02 35.782C107.727 37.5413 105.253 37.9198 103.494 36.6273C101.735 35.3349 101.356 32.8609 102.649 31.1016L107.463 24.5484ZM111.212 26.1213C110.788 25.8099 110.193 25.9011 109.881 26.3249L105.067 32.8781C104.756 33.3019 104.847 33.8978 105.271 34.2091C105.694 34.5204 106.29 34.4292 106.602 34.0055L111.416 27.4522C111.727 27.0285 111.636 26.4326 111.212 26.1213ZM36.1817 63.3771C36.1817 44.1601 51.7602 28.5817 70.9772 28.5817C90.1941 28.5817 105.773 44.1601 105.773 63.3771C105.773 82.5941 90.1941 98.1725 70.9772 98.1725C51.7602 98.1725 36.1817 82.5941 36.1817 63.3771ZM70.9772 25.581C50.103 25.581 33.1811 42.5029 33.1811 63.3771C33.1811 84.2513 50.103 101.173 70.9772 101.173C77.8393 101.173 84.2743 99.3444 89.8214 96.1478L94.7272 101.054C94.5871 103.138 95.3138 105.271 96.9074 106.864L112.045 122.002C114.975 124.932 119.725 124.932 122.654 122.002L125.918 118.738C128.848 115.809 128.848 111.059 125.918 108.129L110.78 92.9914C109.186 91.3974 107.053 90.6707 104.968 90.8114L100.781 86.624C105.789 80.2124 108.773 72.1433 108.773 63.3771C108.773 42.5029 91.8513 25.581 70.9772 25.581ZM101.716 91.8026L98.8347 88.9215C96.9159 91.0129 94.7647 92.8876 92.4219 94.5047L95.718 97.8007C96.0382 97.2484 96.4346 96.7283 96.9074 96.2555L100.171 92.9915C100.644 92.519 101.164 92.1227 101.716 91.8026ZM88.3243 58.8345C89.0655 58.464 89.3659 57.5628 88.9953 56.8216C88.6247 56.0805 87.7235 55.7801 86.9824 56.1507L75.2108 62.0365C74.7025 62.2906 74.3814 62.8101 74.3814 63.3784C74.3814 63.9467 74.7025 64.4662 75.2108 64.7203L86.9824 70.6061C87.7235 70.9767 88.6247 70.6763 88.9953 69.9352C89.3659 69.194 89.0655 68.2928 88.3243 67.9223L79.2366 63.3784L88.3243 58.8345ZM52.9575 56.8216C52.587 57.5628 52.8874 58.464 53.6285 58.8345L62.7162 63.3784L53.6285 67.9223C52.8874 68.2928 52.587 69.194 52.9575 69.9352C53.3281 70.6763 54.2293 70.9767 54.9704 70.6061L66.742 64.7203C67.2503 64.4662 67.5714 63.9467 67.5714 63.3784C67.5714 62.8101 67.2503 62.2906 66.742 62.0365L54.9704 56.1507C54.2293 55.7801 53.3281 56.0805 52.9575 56.8216ZM45.991 63.3767C45.991 49.5774 57.1775 38.3909 70.9768 38.3909C84.776 38.3909 95.9625 49.5774 95.9625 63.3767C95.9625 77.1759 84.776 88.3624 70.9768 88.3624C57.1775 88.3624 45.991 77.1759 45.991 63.3767ZM70.9768 35.3903C55.5203 35.3903 42.9903 47.9202 42.9903 63.3767C42.9903 78.8332 55.5203 91.3631 70.9768 91.3631C86.4332 91.3631 98.9632 78.8332 98.9632 63.3767C98.9632 47.9202 86.4332 35.3903 70.9768 35.3903ZM124.125 39.0798C123.462 37 121.238 35.8521 119.158 36.5157L111.411 38.9877C109.332 39.6513 108.184 41.8752 108.847 43.955C109.511 46.0347 111.735 47.1826 113.815 46.519L121.561 44.0471C123.641 43.3834 124.789 41.1595 124.125 39.0798ZM120.07 39.3744C120.571 39.2145 121.107 39.491 121.267 39.992C121.427 40.4929 121.15 41.0286 120.649 41.1884L112.902 43.6604C112.402 43.8202 111.866 43.5437 111.706 43.0428C111.546 42.5418 111.823 42.0062 112.324 41.8463L120.07 39.3744ZM22.9471 85.7058C20.8512 86.3165 19.6472 88.5107 20.258 90.6065C20.8687 92.7024 23.0629 93.9063 25.1587 93.2956L32.9655 91.0207C35.0614 90.4099 36.2653 88.2158 35.6546 86.1199C35.0439 84.0241 32.8497 82.8201 30.7539 83.4309L22.9471 85.7058ZM23.1388 89.7671C22.9917 89.2622 23.2817 88.7337 23.7865 88.5866L31.5933 86.3117C32.0982 86.1646 32.6267 86.4546 32.7738 86.9594C32.9209 87.4642 32.6309 87.9927 32.1261 88.1399L24.3193 90.4148C23.8144 90.5619 23.2859 90.2719 23.1388 89.7671ZM30.8837 106.342C29.1577 105.005 28.842 102.523 30.1787 100.797L35.1573 94.3674C36.4939 92.6414 38.9767 92.3257 40.7027 93.6623C42.4287 94.9989 42.7444 97.4817 41.4078 99.2077L36.4291 105.637C35.0925 107.363 32.6098 107.679 30.8837 106.342ZM32.5511 102.634C32.2292 103.05 32.3052 103.648 32.721 103.969C33.1367 104.291 33.7347 104.215 34.0567 103.8L39.0353 97.3705C39.3573 96.9547 39.2812 96.3567 38.8655 96.0348C38.4498 95.7128 37.8517 95.7889 37.5298 96.2046L32.5511 102.634Z" fill="#FCFCFC" fill-opacity="0.3"/>
</svg>
