<svg width="40" height="40" viewBox="0 0 40 40" fill="none" xmlns="http://www.w3.org/2000/svg">
<g clip-path="url(#clip0_1_2)">
<path d="M40 20C40 8.9543 31.0457 0 20 0C8.9543 0 0 8.9543 0 20C0 31.0457 8.9543 40 20 40C31.0457 40 40 31.0457 40 20Z" fill="#F8604A"/>
<path d="M22.776 31.5H26.954V7.5H20.876C14.764 7.5 11.552 10.642 11.552 15.27C11.552 18.965 13.314 21.14 16.456 23.385L11 31.5H15.524L21.601 22.418L19.495 21.002C16.94 19.276 15.696 17.929 15.696 15.028C15.696 12.473 17.492 10.746 20.911 10.746H22.775L22.776 31.5Z" fill="white"/>
</g>
<defs>
<clipPath id="clip0_1_2">
<rect width="40" height="40" fill="white"/>
</clipPath>
</defs>
</svg>
